<svg width="25" height="25" viewBox="0 0 25 25" fill="none" xmlns="http://www.w3.org/2000/svg">
<path d="M12.5 0C5.59495 0 0 5.59495 0 12.5C0 19.405 5.59495 25 12.5 25C19.405 25 25 19.405 25 12.5C25 5.59495 19.405 0 12.5 0ZM12.5 23.9603C6.18389 23.9603 1.03966 18.8221 1.03966 12.5C1.03966 6.17788 6.18389 1.03966 12.5 1.03966C18.8161 1.03966 23.9603 6.18389 23.9603 12.5C23.9603 18.8161 18.8161 23.9603 12.5 23.9603Z" fill="white"/>
<path d="M12.9868 4.80774H11.9771V12.0133H4.80768V13.0229H11.9771V20.1924H12.9868V13.0229H20.1923V12.0133H12.9868V4.80774Z" fill="white"/>
</svg>
